# xmcd
#
# Track frame offsets:
#	150
#	11603
#	23938
#	35765
#	47548
#	59403
#	71173
#	82168
#	96735
#	109135
#	118593
#	130273
#	141603
#	154105
#	166113
#	183088
#	194333
#	206313
#	217425
#	230945
#	242755
#	253500
#
# Disc length: 3540 seconds
#
# Revision: 1
# Processed by: cddbd v1.5.2PL0 Copyright (c) Steve Scherf et al.
# Submitted via: audiograbber 1.83.01
#
DISCID=520dd216
DTITLE=Otis Redding - Satisfaction
DYEAR=1994
DGENRE=Soul
TTITLE0=Security
TTITLE1=Come to me
TTITLE2=Mr. Pitiful
TTITLE3=I want to thank you
TTITLE4=That's what my heart needs
TTITLE5=Chained and bound
TTITLE6=That's how strong my love is
TTITLE7=I've been loving you too long
TTITLE8=Satisfaction
TTITLE9=Respect
TTITLE10=Ole Man trouble
TTITLE11=These arms of mine
TTITLE12=Hey hey baby
TTITLE13=Fa-fa-fa-fa-fa (Sad song)
TTITLE14=Try a little tenderness
TTITLE15=Lucille
TTITLE16=Shake
TTITLE17=I'm depending on you
TTITLE18=Tramp
TTITLE19=I can't turn you loose
TTITLE20=Pain in my heart
TTITLE21=(Sittin' on) the dock of the bay
EXTD=
EXTT0=
EXTT1=
EXTT2=
EXTT3=
EXTT4=
EXTT5=
EXTT6=
EXTT7=
EXTT8=
EXTT9=
EXTT10=
EXTT11=
EXTT12=
EXTT13=
EXTT14=
EXTT15=
EXTT16=
EXTT17=
EXTT18=
EXTT19=
EXTT20=
EXTT21=
PLAYORDER=
